{
    "asset" : {
        "generator" : "Khronos glTF Blender I/O v0.9.36",
        "version" : "2.0"
    },
    "scene" : 0,
    "scenes" : [
        {
            "name" : "Scene",
            "nodes" : [
                0,
                1,
                2
            ]
        }
    ],
    "nodes" : [
        {
            "mesh" : 0,
            "name" : "pal",
            "rotation" : [
                0.7071068286895752,
                0,
                0,
                0.7071067094802856
            ],
            "scale" : [
                0.08000002056360245,
                0.08000002801418304,
                0.0786249116063118
            ],
            "translation" : [
                -6.128102540969849e-06,
                -3.1839063012739643e-05,
                0.00038944982225075364
            ]
        },
        {
            "mesh" : 1,
            "name" : "lollipop",
            "rotation" : [
                0.5000001192092896,
                0.4999999701976776,
                0.5,
                0.5000000596046448
            ],
            "scale" : [
                0.5600001811981201,
                0.5500001907348633,
                0.10000002384185791
            ],
            "translation" : [
                -6.128102540969849e-06,
                4.099968910217285,
                3.4814227547030896e-05
            ]
        },
        {
            "mesh" : 2,
            "name" : "logo",
            "rotation" : [
                0,
                -0.7071068286895752,
                0,
                0.7071068286895752
            ],
            "scale" : [
                0.548489511013031,
                0.5276256799697876,
                0.0021248727571219206
            ],
            "translation" : [
                -6.128102540969849e-06,
                4.099968433380127,
                3.4814227547030896e-05
            ]
        }
    ],
    "materials" : [
        {
            "doubleSided" : true,
            "name" : "Material.001",
            "pbrMetallicRoughness" : {
                "baseColorFactor" : [
                    1,
                    1,
                    1,
                    1
                ],
                "metallicFactor" : 0,
                "roughnessFactor" : 0.5
            }
        },
        {
            "alphaMode" : "BLEND",
            "doubleSided" : true,
            "emissiveFactor" : [
                1,
                1,
                1
            ],
            "name" : "Material.003",
            "pbrMetallicRoughness" : {
                "baseColorFactor" : [
                    0.07323896139860153,
                    0.07323896139860153,
                    0.07323896139860153,
                    1
                ],
                "metallicFactor" : 0,
                "roughnessFactor" : 1
            }
        },
        {
            "doubleSided" : true,
            "name" : "Material.002",
            "pbrMetallicRoughness" : {
                "baseColorTexture" : {
                    "index" : 0,
                    "texCoord" : 0
                },
                "metallicFactor" : 0,
                "roughnessFactor" : 0.5
            }
        }
    ],
    "meshes" : [
        {
            "name" : "Circle.001",
            "primitives" : [
                {
                    "attributes" : {
                        "POSITION" : 0,
                        "NORMAL" : 1,
                        "TEXCOORD_0" : 2
                    },
                    "indices" : 3,
                    "material" : 0
                }
            ]
        },
        {
            "name" : "Cylinder.001",
            "primitives" : [
                {
                    "attributes" : {
                        "POSITION" : 4,
                        "NORMAL" : 5,
                        "TEXCOORD_0" : 6
                    },
                    "indices" : 7,
                    "material" : 1
                }
            ]
        },
        {
            "name" : "Cylinder.003",
            "primitives" : [
                {
                    "attributes" : {
                        "POSITION" : 8,
                        "NORMAL" : 9,
                        "TEXCOORD_0" : 10
                    },
                    "indices" : 11,
                    "material" : 2
                }
            ]
        }
    ],
    "textures" : [
        {
            "source" : 0
        }
    ],
    "images" : [
        {
            "mimeType" : "image/png",
            "name" : "lp9",
            "uri" : "lp9.png"
        }
    ],
    "accessors" : [
        {
            "bufferView" : 0,
            "componentType" : 5126,
            "count" : 64,
            "max" : [
                0.800000011920929,
                0.7999998331069946,
                0
            ],
            "min" : [
                -0.7999999523162842,
                -0.800000011920929,
                -45.41089630126953
            ],
            "type" : "VEC3"
        },
        {
            "bufferView" : 1,
            "componentType" : 5126,
            "count" : 64,
            "type" : "VEC3"
        },
        {
            "bufferView" : 2,
            "componentType" : 5126,
            "count" : 64,
            "type" : "VEC2"
        },
        {
            "bufferView" : 3,
            "componentType" : 5123,
            "count" : 372,
            "type" : "SCALAR"
        },
        {
            "bufferView" : 4,
            "componentType" : 5126,
            "count" : 3528,
            "max" : [
                0.9935951828956604,
                0.9935951828956604,
                0.9921923279762268
            ],
            "min" : [
                -0.9935951828956604,
                -0.9935951828956604,
                -0.9921923279762268
            ],
            "type" : "VEC3"
        },
        {
            "bufferView" : 5,
            "componentType" : 5126,
            "count" : 3528,
            "type" : "VEC3"
        },
        {
            "bufferView" : 6,
            "componentType" : 5126,
            "count" : 3528,
            "type" : "VEC2"
        },
        {
            "bufferView" : 7,
            "componentType" : 5123,
            "count" : 16896,
            "type" : "SCALAR"
        },
        {
            "bufferView" : 8,
            "componentType" : 5126,
            "count" : 518,
            "max" : [
                1,
                1,
                1.0043538808822632
            ],
            "min" : [
                -1,
                -1,
                -1.0043538808822632
            ],
            "type" : "VEC3"
        },
        {
            "bufferView" : 9,
            "componentType" : 5126,
            "count" : 518,
            "type" : "VEC3"
        },
        {
            "bufferView" : 10,
            "componentType" : 5126,
            "count" : 518,
            "type" : "VEC2"
        },
        {
            "bufferView" : 11,
            "componentType" : 5123,
            "count" : 756,
            "type" : "SCALAR"
        }
    ],
    "bufferViews" : [
        {
            "buffer" : 0,
            "byteLength" : 768,
            "byteOffset" : 0
        },
        {
            "buffer" : 0,
            "byteLength" : 768,
            "byteOffset" : 768
        },
        {
            "buffer" : 0,
            "byteLength" : 512,
            "byteOffset" : 1536
        },
        {
            "buffer" : 0,
            "byteLength" : 744,
            "byteOffset" : 2048
        },
        {
            "buffer" : 0,
            "byteLength" : 42336,
            "byteOffset" : 2792
        },
        {
            "buffer" : 0,
            "byteLength" : 42336,
            "byteOffset" : 45128
        },
        {
            "buffer" : 0,
            "byteLength" : 28224,
            "byteOffset" : 87464
        },
        {
            "buffer" : 0,
            "byteLength" : 33792,
            "byteOffset" : 115688
        },
        {
            "buffer" : 0,
            "byteLength" : 6216,
            "byteOffset" : 149480
        },
        {
            "buffer" : 0,
            "byteLength" : 6216,
            "byteOffset" : 155696
        },
        {
            "buffer" : 0,
            "byteLength" : 4144,
            "byteOffset" : 161912
        },
        {
            "buffer" : 0,
            "byteLength" : 1512,
            "byteOffset" : 166056
        }
    ],
    "buffers" : [
        {
            "byteLength" : 167568,
            "uri" : "ledenec.bin"
        }
    ]
}
